<svg width="106" height="136" viewBox="0 0 106 136" fill="none" xmlns="http://www.w3.org/2000/svg">
<path d="M46.7073 0H57.4859L65.3902 1.44154L75.4502 5.0454L84.0731 10.0908L91.9774 17.2985L98.4445 26.6685L102.037 33.8762L104.912 43.967V62.7071L103.475 69.194V77.1225L105.63 85.7717V90.8171L102.756 95.1418L99.8817 97.3041L96.2888 98.7456L93.4145 110.278L89.1031 115.323L83.3545 118.206L66.1087 118.927L65.3902 127.576L62.5159 132.622L56.7673 135.505H25.1501L19.4015 133.343L16.5272 129.739L15.09 126.856L14.3715 91.5379L12.2157 86.4925L7.18573 80.0056L2.87429 70.6355L0 58.3824V46.8501L2.15572 36.7593L6.46716 26.6685L12.2157 18.74L15.8086 14.4154L25.1501 7.20771L34.4915 2.88308L41.6772 0.720771L46.7073 0ZM45.2701 8.64925L33.7729 12.2531L25.8686 17.2985L18.6829 23.7854L12.2157 33.8762L8.62288 44.6878V61.2655L11.4972 70.6355L15.8086 78.564L20.8386 85.7717L22.2758 90.8171L22.9943 125.414L25.1501 127.576H56.0487L58.2044 124.693L58.923 115.323L62.5159 111.719L81.1988 110.999L85.5102 108.116L86.9474 105.953L88.3845 95.1418L89.8216 92.2587L97.0074 89.3756L97.7259 87.2133L95.5702 78.564V67.0317L97.0074 60.5448V46.1293L93.4145 34.597L89.1031 27.3893L82.6359 20.1816L77.6059 15.857L67.5459 10.8116L58.923 8.64925H45.2701Z" fill="#0681C6"/>
<path d="M71.1387 51.1747H86.2288L88.3845 53.337V69.194L86.9473 71.3563L82.6359 70.6356L80.4802 67.7525L77.6059 69.194L58.923 87.9341L57.4858 88.6548H30.8986L29.4615 87.2133V82.1679L30.8986 80.7263L53.893 80.0056L72.5759 61.2655L73.2944 59.824L69.7016 58.3824L68.983 53.337L71.1387 51.1747Z" fill="#38BF49"/>
<path d="M30.1801 25.9478H36.6472L40.2401 29.5516L40.9586 33.1555H45.9887L46.7072 29.5516L50.3001 25.9478H56.0487L60.3601 29.5516L61.0787 33.1555H66.8273L67.5459 28.8308L71.1387 25.9478H76.8873L80.4802 28.8308L81.1987 30.2724V37.4801L77.6059 41.0839L71.8573 41.8047L67.5459 38.9216L66.8273 35.3178H60.3601L59.6416 38.9216L55.3301 41.8047L50.3001 41.0839L46.7072 37.4801L45.9887 35.3178H40.9586L39.5215 38.9216L35.2101 41.8047L30.1801 41.0839L26.5872 37.4801V35.3178H20.8386L20.12 33.1555H25.8686L26.5872 29.5516L30.1801 25.9478Z" fill="#0691D1"/>
<path d="M30.8986 50.454H36.6472L40.2401 53.3371L40.9586 56.9409H45.9887L47.4258 53.3371L51.0187 50.454H56.0487L59.6415 52.6163L61.0787 56.9409H67.5459V59.1032H61.0787L59.6415 63.4278L56.0487 65.5902H51.0187L47.4258 63.4278L45.9887 59.1032H40.9586L40.2401 62.7071L36.6472 65.5902H30.8986L27.3058 63.4278L25.8686 59.1032H20.8386L20.12 56.9409H25.8686L27.3058 53.3371L30.8986 50.454Z" fill="#F38C30"/>
<path d="M71.1387 51.1747H86.2288L88.3845 53.337V69.194L86.9473 71.3563L82.6359 70.6356L81.1987 67.0317L77.6059 65.5902L76.8873 67.7525L75.4502 62.7071L77.6059 61.9863H74.7316V67.7525L76.1687 69.194L74.7316 69.9148L72.5759 69.194L71.8573 72.0771L69.7016 71.3563L63.953 73.5186L62.5158 72.7979L64.6716 69.9148L68.983 64.8694L73.2944 59.824L69.7016 58.3824L68.983 53.337L71.1387 51.1747Z" fill="#38BF4A"/>
<path d="M62.5159 110.999H81.1988V111.72L66.8273 112.44V113.882H65.3902V112.44L63.953 113.161V114.603L68.983 113.882L68.2645 116.765L82.6359 117.486V118.206L66.1088 118.927L65.3902 127.576L62.5159 132.622L56.7673 135.505H25.1501V134.063L56.7673 133.343L57.4859 129.739H56.0487V128.297H26.5872V127.576L56.0487 126.856L57.4859 124.693L58.2045 115.323L61.7973 111.72L62.5159 110.999Z" fill="#017BC3"/>
<path d="M17.9643 125.414L20.1201 126.135L20.8386 127.576L22.2758 125.414L23.7129 126.856L26.5872 127.576L56.0487 128.297V129.739H57.4859V134.063L22.2758 134.784L20.8386 131.18L17.9643 129.739L16.5272 126.135L17.9643 125.414Z" fill="#0083C8"/>
<path d="M30.18 25.9478H36.6472L40.2401 29.5516L40.9586 34.597H45.9887V35.3178H40.9586L39.5215 38.9216L35.2101 41.8047L30.18 41.0839L26.5872 37.4801V35.3178H20.8386L20.12 33.1555H25.8686L26.5872 29.5516L30.18 25.9478Z" fill="#0794D4"/>
<path d="M30.8986 50.454H36.6472L40.2401 53.3371L41.6772 56.9409L40.9586 61.2655L38.0844 64.8694L36.6472 65.5902H30.8986L27.3058 63.4278L25.8686 59.1032H20.8386L20.12 56.9409H25.8686L27.3058 53.3371L30.8986 50.454Z" fill="#E7AB40"/>
<path d="M71.1387 25.9478H76.8873L80.4802 28.8308L81.1988 30.2724V37.4801L77.6059 41.0839L71.8573 41.8047L67.5459 38.9216L66.1087 33.1555L68.2645 28.1101L71.1387 25.9478Z" fill="#37BF48"/>
<path d="M92.6959 98.7456H94.1331V103.791L91.9773 108.836L90.5402 112.44L89.8216 110.999H88.3845L89.103 115.323L83.3545 118.206L68.2644 117.486L67.5459 116.044V114.603L65.3901 115.323L63.953 114.603V113.161L62.5158 112.44H65.3901V113.882H66.8273L66.1087 111.719H81.1987V110.278H85.5102L86.9473 106.674L89.8216 105.233L89.103 103.791H91.2588L91.9773 100.187L92.6959 98.7456Z" fill="#0182C7"/>
<path d="M18.6829 89.3756H22.2758V123.973H20.8386V120.369L18.6829 122.531L17.9643 123.973L15.8086 123.252V94.421H16.5272L17.2457 101.629L20.12 102.349V96.5833L20.8386 94.421H19.4015L20.12 91.5379H18.6829V89.3756Z" fill="#0080C6"/>
<path d="M30.8986 80.7263H33.0544L33.7729 82.8887H32.3358L33.0544 85.7717L32.3358 86.4925L35.2101 87.2133L34.4915 83.6094H35.9286L36.6472 82.1679L38.8029 81.4471H52.4558L51.0187 82.1679L51.7373 86.4925L53.1744 87.9341L30.8986 88.6548L29.4615 87.2133V82.1679L30.8986 80.7263Z" fill="#39BF4A"/>
<path d="M58.2045 115.323L59.6416 118.206L61.7973 117.486L63.2345 118.206L62.5159 123.973L60.3602 126.135L58.923 129.018L58.2045 133.343L60.3602 134.063L56.7673 135.505H25.1501V134.063L56.7673 133.343L57.4859 129.739H56.0487V128.297H26.5872V127.576L56.0487 126.856L57.4859 124.693L58.2045 115.323Z" fill="#2487C7"/>
<path d="M2.87428 38.9216L8.62287 41.8047L9.34144 44.6878H7.90429V61.9863H7.18572V58.3825L1.43713 59.1032V46.1293L2.15571 43.967L2.87428 38.9216Z" fill="#0084C9"/>
<path d="M53.893 80.0056L54.6116 81.4471H53.1744V83.6094L55.3302 82.8887L56.0487 85.051H53.893L53.1744 86.4925L56.0487 85.7717V87.2133L58.2045 87.9341L57.4859 88.6548H32.3358V87.9341L51.7373 87.2133L51.0187 83.6094V82.1679H36.6473L35.9287 84.3302L35.2101 87.2133H31.6172L33.0544 80.7263L53.893 80.0056Z" fill="#2EBC3F"/>
<path d="M86.9474 52.6163L88.3845 53.3371V69.194L86.9474 71.3563L82.6359 70.6356L81.1988 67.0317L77.6059 65.5902L76.8874 67.7525L75.4502 62.7071L79.0431 64.1486L82.6359 63.4278L84.0731 65.5902H85.5102L84.7917 61.2655H86.9474V52.6163Z" fill="#43C251"/>
<path d="M86.2288 52.6163H86.9474V61.2655L85.5102 61.9863V65.5902L82.6359 66.3109L81.9174 64.1486L78.3245 64.8694V62.7071L80.4802 61.9863L81.9174 62.7071L81.1988 59.1032L81.9174 57.6617H79.7616L79.0431 54.7786H82.6359L83.3545 53.3371L86.2288 52.6163Z" fill="#37BF49"/>
<path d="M22.2758 90.8171H22.9944L23.7129 125.414L25.1501 127.576L22.2758 126.135L20.1201 128.297V126.135L17.2458 127.576L21.5572 132.622L20.8386 134.063L17.2458 131.18L15.0901 126.856L15.8086 123.252L17.9643 123.973L19.4015 120.369H20.8386V123.973H22.2758V90.8171Z" fill="#2B8FCA"/>
<path d="M7.90433 44.6878H8.62291L9.34148 61.2655L12.2158 70.6356L13.6529 74.2394H12.2158V72.7979H8.62291V67.7525L7.90433 66.3109L5.03004 67.0317L3.5929 65.5902L4.31147 62.7071L7.18576 61.2655V49.0124L7.90433 44.6878Z" fill="#0D7FC5"/>
<path d="M51.0187 50.454H56.0487L59.6416 52.6163L61.0787 56.9409L58.923 57.6617L58.2044 56.2201L58.923 54.7786L56.7673 55.4994L56.0487 54.7786L53.893 59.1032L51.7373 58.3825V56.2201L48.1444 55.4994L49.5816 54.7786L50.3001 51.8955L51.0187 50.454Z" fill="#F38D31"/>
<path d="M5.74859 28.1101L6.46716 30.9932L7.18573 36.7593H5.03001L3.59287 41.0839L2.87429 46.8501H2.15572L1.43715 60.5448L0 58.3824V46.8501L2.15572 36.7593L5.74859 28.1101Z" fill="#1E85C7"/>
<path d="M22.2758 9.37002L22.9943 10.8116L22.2758 12.9739L20.8386 13.6946L20.1201 15.857L16.5272 19.4608L15.09 21.6231L10.7786 22.3439V23.7854H9.34146L8.62288 28.1101H6.46716L7.90431 24.5062L12.9343 18.0193L15.8086 14.4154L22.2758 9.37002Z" fill="#0C7FC4"/>
<path d="M71.1388 51.1747H86.2288L86.9474 52.6163L73.2945 53.337L72.5759 55.4994L73.2945 56.2201L74.013 58.3824L73.2945 61.2655V59.824L69.7016 58.3824L68.983 53.337L71.1388 51.1747Z" fill="#49C357"/>
<path d="M63.953 118.927H64.6716L65.3901 127.576L62.5158 132.622L58.2044 133.343V129.018L61.0787 123.973L63.2344 123.252L63.953 118.927Z" fill="#0082C7"/>
<path d="M96.2888 24.5062L98.4445 26.6685L101.319 33.1555H97.7259V35.3178L95.5702 36.0385L96.2888 42.5255L94.8516 40.3632L91.9774 32.4347L98.4445 30.2724L96.2888 25.9478V24.5062Z" fill="#0A7EC4"/>
<path d="M55.3301 54.0578L58.923 54.7786L59.6416 56.9409H67.5459V59.1032H61.0787V60.5448L58.923 61.2655V59.1032H55.3301L54.6116 56.2201L55.3301 54.0578Z" fill="#F48D2E"/>
<path d="M62.5159 110.999H81.1988V111.72L66.8273 112.44V113.882H65.3902V112.44H62.5159L63.2344 114.603L61.0787 118.206H59.6416L58.923 114.603L62.5159 110.999Z" fill="#0F7DC3"/>
<path d="M75.4502 33.8762H79.0431L79.7617 36.0385L78.3245 36.7593H80.4802L79.0431 39.6424H76.8874L72.5759 36.7593L75.4502 33.8762Z" fill="#35BE46"/>
<path d="M103.475 82.1679L104.912 82.8887L105.63 85.7718V90.8172L103.475 91.5379L102.037 89.3756V83.6094H103.475V82.1679Z" fill="#1082C5"/>
<path d="M63.953 69.9148L65.3902 70.6356L58.923 77.1225L58.2044 78.564L61.0787 80.0056L56.0487 80.7264L54.6116 79.2848L63.953 69.9148Z" fill="#31BC41"/>
<path d="M71.1388 25.9478L74.7316 26.6685L72.5759 29.5516H74.7316V30.9932H68.2645L67.5459 28.8308L71.1388 25.9478Z" fill="#3AC049"/>
<path d="M63.953 118.927H64.6716L65.3902 127.576L62.5159 132.622H61.0787L60.3602 129.018L61.7973 127.576L62.5159 126.856L63.2345 125.414L63.953 118.927Z" fill="#0B82C6"/>
<path d="M58.923 6.48694L63.953 7.92848L66.8273 9.37002V10.8116L58.923 9.37002L48.863 8.64925V7.92848H58.923V6.48694Z" fill="#127EC3"/>
<path d="M84.7916 61.2655H86.9474L87.6659 70.6355L84.0731 71.3563L81.9173 69.9148V67.7525L86.2288 69.194L84.7916 61.2655Z" fill="#40C150"/>
<path d="M20.12 33.1555H28.7429L28.0243 35.3178H20.8386L20.12 33.1555Z" fill="#2385C1"/>
<path d="M50.3001 25.9478H51.7373V27.3893H50.3001L48.863 33.8762L45.9887 33.1555L46.7073 29.5516L50.3001 25.9478Z" fill="#1594D3"/>
<path d="M60.3601 30.9932L61.0787 33.1555H66.1087L66.8273 35.3178H58.2044V33.8762H60.3601V30.9932Z" fill="#2A8AC1"/>
<path d="M89.8216 18.0193L92.6959 18.74V20.1816L89.8216 22.3439H88.3845L87.6659 23.7854L86.2288 22.3439V20.1816L89.1031 19.4608L89.8216 18.0193Z" fill="#0081C7"/>
<path d="M32.3358 3.60386H33.773V6.48694L34.4915 7.92848L32.3358 8.64926L30.8987 7.92848L30.1801 6.48694L27.3058 7.92848L25.1501 7.20771L32.3358 3.60386Z" fill="#1481C6"/>
<path d="M86.9473 101.629L90.5402 105.233L89.1031 106.674H86.9473L85.5102 110.278L82.6359 109.557L86.2288 105.953L86.9473 101.629Z" fill="#1881C4"/>
<path d="M72.5759 38.2009L77.6059 38.9216V41.0839L71.8573 41.8047L72.5759 38.2009Z" fill="#44C353"/>
<path d="M38.803 28.8308L40.9587 30.9932V34.597H45.9887V35.3178H40.9587L40.2401 36.7593L38.803 33.8762V28.8308Z" fill="#2D9DD3"/>
<path d="M68.983 5.76617L70.4202 7.20771L71.8573 6.48694L72.5759 10.8116L70.4202 11.5323L68.2644 10.8116V6.48694L68.983 5.76617Z" fill="#0084C9"/>
<path d="M41.6772 0.720772L45.2701 1.44154L43.833 4.32463L39.5215 5.0454V3.60386L38.0844 2.88308L41.6772 1.44154V0.720772Z" fill="#0985C9"/>
<path d="M9.34144 67.7525L11.4972 68.4732L13.6529 74.2394H12.2157V72.7979H8.62286L9.34144 67.7525Z" fill="#1383C6"/>
</svg>
