<svg width="49" height="55" viewBox="0 0 49 55" fill="none" xmlns="http://www.w3.org/2000/svg">
<path d="M24.6778 0.00993346C25.8044 0.0151624 26.9282 0.122078 28.0356 0.329379L28.4701 0.410715C29.4739 0.598633 30.4607 0.868379 31.4205 1.21725L32.9291 1.76561C34.0172 2.16109 35.0662 2.65664 36.0627 3.2459L36.7945 3.67869C37.9237 4.34638 38.9795 5.13089 39.9446 6.01931L40.5142 6.54366C41.5597 7.50605 42.4922 8.58435 43.2937 9.75772L45.0205 12.2858L45.8788 14.0277C46.3895 15.0641 46.8031 16.1455 47.1144 17.2581L47.2333 17.6833C47.7006 19.3533 47.9335 21.0802 47.9254 22.8144L47.9047 27.2423C47.9 28.2509 47.7851 29.2559 47.5622 30.2395C47.3393 31.2229 47.2245 32.2277 47.2197 33.2359L47.2188 33.4257C47.2128 34.697 47.3624 35.9643 47.6641 37.1993L48.0181 38.6477C48.1232 39.078 48.1753 39.5195 48.1731 39.9624L48.1725 40.087C48.1676 41.0738 47.8715 42.0371 47.3214 42.8563C47.0048 43.3279 46.6103 43.7422 46.1548 44.0815L45.8176 44.3327C45.6238 44.4772 45.4117 44.5953 45.1869 44.6842C44.3671 45.0084 43.7528 45.7066 43.5357 46.5611L42.9463 48.8809C42.6821 49.9208 42.1798 50.885 41.479 51.6974C40.8754 52.3971 40.1269 52.9742 39.2988 53.3843C38.4056 53.8267 37.4169 54.0803 36.4208 54.1173L33.439 54.2278C32.4924 54.2629 31.7059 53.505 31.7059 52.5578C31.7059 51.6567 32.4203 50.9179 33.3208 50.8876L35.5766 50.8116C36.4831 50.781 37.3634 50.4999 38.1198 49.9994L38.4798 49.7613C38.7826 49.5609 39.0428 49.3025 39.2452 49.0011C39.4787 48.6535 39.6298 48.2572 39.6868 47.8423L40.2177 43.9823C40.2581 43.6881 40.347 43.4026 40.4808 43.1375C40.7776 42.549 41.28 42.09 41.8928 41.8475L43.6346 41.1582C44.0121 41.0088 44.3047 40.7007 44.4344 40.3159C44.518 40.0681 44.5294 39.8016 44.4674 39.5476L43.8837 37.1569C43.6932 36.3766 43.5987 35.5759 43.6024 34.7726L43.614 32.2323C43.6186 31.2236 43.7334 30.2183 43.9563 29.2346C44.1792 28.2514 44.294 27.2468 44.2987 26.2386L44.3091 24.0184C44.3179 22.1307 44.0412 20.2526 43.4883 18.4477L43.328 17.9242C42.9153 16.5771 42.3442 15.2837 41.6265 14.0713C41.0455 13.0897 40.3715 12.1662 39.6137 11.3135L37.8142 9.28878L37.2709 8.81707C36.1125 7.81147 34.835 6.95206 33.4669 6.25816L32.6479 5.84271C31.5145 5.26782 30.3215 4.81884 29.0903 4.5038C27.7079 4.15005 26.2871 3.96772 24.8601 3.96092L23.6392 3.95511C21.7399 3.94606 19.8502 4.22611 18.0351 4.78566L17.8931 4.82944C16.3142 5.3162 14.8066 6.00986 13.4097 6.89233L13.2117 7.01742C12.3343 7.57169 11.5046 8.19795 10.731 8.88973L10.4672 9.12563C9.22598 10.2357 8.13836 11.5064 7.2332 12.9041L6.85614 13.4863C6.03639 14.7522 5.3778 16.1153 4.89564 17.5443C4.27465 19.3847 3.95346 21.3129 3.94438 23.2552L3.9352 25.2171C3.92689 26.9923 4.1832 28.7588 4.69567 30.4584C5.04098 31.6036 5.50042 32.7113 6.06708 33.7647L7.16763 35.8106L8.68581 38.0084C9.19135 38.7403 9.57174 39.5511 9.81145 40.4076C9.99965 41.0802 10.0993 41.7744 10.1078 42.4727L10.2131 51.0597C10.2254 52.0676 9.41176 52.8912 8.40379 52.8912C7.41287 52.8912 6.60629 52.0942 6.59452 51.1033L6.50119 43.2455C6.48932 42.2465 6.28354 41.2592 5.89527 40.3387C5.6393 39.7318 5.30667 39.1602 4.90551 38.6378L4.30218 37.8522C3.58686 36.9208 2.9803 35.9106 2.4943 34.8415L2.05743 33.8804C1.53808 32.7379 1.13494 31.5461 0.854086 30.3229L0.474773 28.6709C0.152582 27.2677 -0.00665751 25.832 0.000213168 24.3923L0.00557206 23.2693C0.0118464 21.9546 0.156611 20.6441 0.43747 19.3597L0.634353 18.4593C0.891937 17.2813 1.26273 16.131 1.74157 15.0243L2.1767 14.0187C2.73184 12.7357 3.42894 11.5189 4.25497 10.3911L5.65484 8.47983L5.97325 8.10012C6.85821 7.04479 7.85693 6.09033 8.95128 5.2541L9.91701 4.51615C11.027 3.66798 12.2284 2.94672 13.4988 2.36583L15.8628 1.28493L18.0039 0.651363C18.7661 0.425828 19.5442 0.257953 20.3316 0.149158C21.0748 0.0464762 21.8243 -0.0033113 22.5745 0.000170717L24.6778 0.00993346Z" fill="#0681C6"/>
<path d="M31.1146 25.2697C31.351 25.0348 31.6712 24.9036 32.0045 24.9052L36.5742 24.9266C36.9418 24.9284 37.2937 25.0764 37.5521 25.338C37.8094 25.5985 37.9529 25.9505 37.9512 26.3167L37.9274 31.3874C37.9264 31.5895 37.8658 31.7868 37.7532 31.9546C37.5277 32.2903 37.1261 32.4623 36.7275 32.3938L36.197 32.3025C35.92 32.2549 35.6721 32.1022 35.5049 31.8763C35.1903 31.4515 34.6165 31.3131 34.1429 31.5479L33.9656 31.6358C33.9085 31.6641 33.8535 31.6965 33.801 31.7327L26.9497 36.4623C26.8723 36.5157 26.7912 36.5635 26.707 36.6052C26.4346 36.7402 26.1344 36.8099 25.8304 36.8087L14.5578 36.7651C14.3126 36.7642 14.0778 36.6656 13.9055 36.4911C13.7341 36.3175 13.6384 36.083 13.6396 35.839L13.6449 34.7144C13.646 34.4657 13.7457 34.2276 13.9222 34.0523C14.0933 33.8823 14.3232 33.7846 14.5644 33.7794L23.9977 33.5779C24.6249 33.5645 25.2345 33.3674 25.7508 33.011L31.9108 28.7586C31.973 28.7157 32.0234 28.6578 32.0574 28.5904C32.1762 28.3549 32.0687 28.0683 31.8244 27.9689L31.3996 27.7962C31.1101 27.6784 30.9055 27.4151 30.8628 27.1054L30.7562 26.3304C30.7025 25.9401 30.8352 25.5473 31.1146 25.2697Z" fill="#38BF49"/>
<path d="M9.36011 17.8821C9.36011 17.587 9.59937 17.3477 9.8945 17.3477H37.6829C37.9781 17.3477 38.2173 17.587 38.2173 17.8821V17.8821C38.2173 18.1772 37.9781 18.4165 37.6829 18.4165H9.8945C9.59937 18.4165 9.36011 18.1772 9.36011 17.8821V17.8821Z" fill="#0681C6"/>
<path d="M12.5665 17.8821C12.5665 16.4064 13.7627 15.2101 15.2384 15.2101V15.2101C16.7141 15.2101 17.9104 16.4064 17.9104 17.8821V17.8821C17.9104 19.3578 16.7141 20.5541 15.2384 20.5541V20.5541C13.7627 20.5541 12.5665 19.3578 12.5665 17.8821V17.8821Z" fill="#0681C6"/>
<path d="M29.667 17.8821C29.667 16.4064 30.8633 15.2101 32.339 15.2101V15.2101C33.8147 15.2101 35.011 16.4064 35.011 17.8821V17.8821C35.011 19.3578 33.8147 20.5541 32.339 20.5541V20.5541C30.8633 20.5541 29.667 19.3578 29.667 17.8821V17.8821Z" fill="#38BF4A"/>
<path d="M21.1168 17.8821C21.1168 16.4064 22.313 15.2101 23.7887 15.2101V15.2101C25.2644 15.2101 26.4607 16.4064 26.4607 17.8821V17.8821C26.4607 19.3578 25.2644 20.5541 23.7887 20.5541V20.5541C22.313 20.5541 21.1168 19.3578 21.1168 17.8821V17.8821Z" fill="#0681C6"/>
<path d="M9.36011 26.4324C9.36011 26.1373 9.59937 25.898 9.8945 25.898H28.0639C28.359 25.898 28.5983 26.1373 28.5983 26.4324V26.4324C28.5983 26.7275 28.359 26.9668 28.0639 26.9668H9.8945C9.59937 26.9668 9.36011 26.7275 9.36011 26.4324V26.4324Z" fill="#F38D31"/>
<path d="M12.5665 26.4324C12.5665 24.9567 13.7627 23.7604 15.2384 23.7604V23.7604C16.7141 23.7604 17.9104 24.9567 17.9104 26.4324V26.4324C17.9104 27.9081 16.7141 29.1044 15.2384 29.1044V29.1044C13.7627 29.1044 12.5665 27.9081 12.5665 26.4324V26.4324Z" fill="#E7AB40"/>
<path d="M21.1168 26.4324C21.1168 24.9567 22.313 23.7604 23.7887 23.7604V23.7604C25.2644 23.7604 26.4607 24.9567 26.4607 26.4324V26.4324C26.4607 27.9081 25.2644 29.1044 23.7887 29.1044V29.1044C22.313 29.1044 21.1168 27.9081 21.1168 26.4324V26.4324Z" fill="#F38C30"/>
</svg>
